<svg xmlns="http://www.w3.org/2000/svg" viewBox="0 0 24 24" fill="none">
  <path d="M10.8 3.7l.8-1.6a1 1 0 0 1 1.8-.1l1 1.7a1 1 0 0 0 .9.5l1.8-.2a1 1 0 0 1 1.1.9l.2 1.8a1 1 0 0 0 .4.8l1.4 1.1a1 1 0 0 1 .1 1.5l-1.2 1.2a1 1 0 0 0-.2.9l.4 1.7a1 1 0 0 1-.6 1.2l-1.8.7a1 1 0 0 0-.6.7l-.3 1.8a1 1 0 0 1-1.2.8l-1.7-.4a1 1 0 0 0-.9.2l-1.4 1.2a1 1 0 0 1-1.5-.2l-1-1.5a1 1 0 0 0-.8-.4l-1.8-.2a1 1 0 0 1-.9-1l.1-1.8a1 1 0 0 0-.3-.8L4 12.7a1 1 0 0 1-.1-1.5L5.1 10a1 1 0 0 0 .3-.8l-.3-1.8a1 1 0 0 1 .8-1.1l1.8-.3a1 1 0 0 0 .7-.5z" stroke="white" stroke-width="1.4" stroke-linejoin="round"/>
  <circle cx="12" cy="12" r="3" stroke="white" stroke-width="1.4"/>
</svg>
